REM DIRINDEX 1\2,1\3,1\4,1\5
REM DIRNAME "folder01","folder02","folder03","folder04","folder05"
TITLE ""
FILE "1Q_t_0529-0538.mp3" MP3
  TRACK 01 AUDIO
    TITLE "2:cjc172_2519"
    INDEX 01 00:00:00
  TRACK 02 AUDIO
    TITLE "0:"
    INDEX 01 00:01:08
  TRACK 03 AUDIO
    TITLE "3:cjc172_2520"
    INDEX 01 00:01:61
  TRACK 04 AUDIO
    TITLE "0:"
    INDEX 01 00:02:74
  TRACK 05 AUDIO
    TITLE "4:cjc172_2521"
    INDEX 01 00:03:16
  TRACK 06 AUDIO
    TITLE "0:"
    INDEX 01 00:04:71
  TRACK 07 AUDIO
    TITLE "5:cjc172_2522"
    INDEX 01 00:05:10
  TRACK 08 AUDIO
    TITLE "0:"
    INDEX 01 00:09:39
  TRACK 09 AUDIO
    TITLE "3:cjc172_2523"
    INDEX 01 00:10:19
  TRACK 10 AUDIO
    TITLE "0:"
    INDEX 01 00:11:18
  TRACK 11 AUDIO
    TITLE "4:cjc172_2524"
    INDEX 01 00:11:34
  TRACK 12 AUDIO
    TITLE "0:"
    INDEX 01 00:14:55
  TRACK 13 AUDIO
    TITLE "5:cjc172_2525"
    INDEX 01 00:14:71
  TRACK 14 AUDIO
    TITLE "0:"
    INDEX 01 00:19:08
  TRACK 15 AUDIO
    TITLE "3:cjc172_2526"
    INDEX 01 00:19:63
  TRACK 16 AUDIO
    TITLE "0:"
    INDEX 01 00:20:70
  TRACK 17 AUDIO
    TITLE "4:cjc172_2527"
    INDEX 01 00:21:10
  TRACK 18 AUDIO
    TITLE "0:"
    INDEX 01 00:22:04
  TRACK 19 AUDIO
    TITLE "5:cjc172_2528"
    INDEX 01 00:22:18
  TRACK 20 AUDIO
    TITLE "0:"
    INDEX 01 00:26:21
  TRACK 21 AUDIO
    TITLE "3:cjc172_2529"
    INDEX 01 00:26:74
  TRACK 22 AUDIO
    TITLE "0:"
    INDEX 01 00:28:07
  TRACK 23 AUDIO
    TITLE "4:cjc172_2530"
    INDEX 01 00:28:24
  TRACK 24 AUDIO
    TITLE "0:"
    INDEX 01 00:29:51
  TRACK 25 AUDIO
    TITLE "5:cjc172_2531"
    INDEX 01 00:29:65
  TRACK 26 AUDIO
    TITLE "0:"
    INDEX 01 00:34:43
  TRACK 27 AUDIO
    TITLE "3:cjc172_2532"
    INDEX 01 00:35:20
  TRACK 28 AUDIO
    TITLE "0:"
    INDEX 01 00:36:39
  TRACK 29 AUDIO
    TITLE "4:cjc172_2533"
    INDEX 01 00:36:55
  TRACK 30 AUDIO
    TITLE "0:"
    INDEX 01 00:40:08
  TRACK 31 AUDIO
    TITLE "5:cjc172_2534"
    INDEX 01 00:40:24
  TRACK 32 AUDIO
    TITLE "0:"
    INDEX 01 00:45:01
  TRACK 33 AUDIO
    TITLE "3:cjc172_2535"
    INDEX 01 00:45:54
  TRACK 34 AUDIO
    TITLE "0:"
    INDEX 01 00:46:73
  TRACK 35 AUDIO
    TITLE "4:cjc172_2536"
    INDEX 01 00:47:16
  TRACK 36 AUDIO
    TITLE "0:"
    INDEX 01 00:49:15
  TRACK 37 AUDIO
    TITLE "5:cjc172_2537"
    INDEX 01 00:49:30
  TRACK 38 AUDIO
    TITLE "0:"
    INDEX 01 00:54:10
  TRACK 39 AUDIO
    TITLE "3:cjc172_2538"
    INDEX 01 00:54:63
  TRACK 40 AUDIO
    TITLE "0:"
    INDEX 01 00:55:62
  TRACK 41 AUDIO
    TITLE "4:cjc172_2539"
    INDEX 01 00:56:03
  TRACK 42 AUDIO
    TITLE "0:"
    INDEX 01 00:59:15
  TRACK 43 AUDIO
    TITLE "5:cjc172_2540"
    INDEX 01 00:59:31
  TRACK 44 AUDIO
    TITLE "0:"
    INDEX 01 01:05:35
  TRACK 45 AUDIO
    TITLE "3:cjc172_2541"
    INDEX 01 01:06:13
  TRACK 46 AUDIO
    TITLE "0:"
    INDEX 01 01:07:42
  TRACK 47 AUDIO
    TITLE "4:cjc172_2542"
    INDEX 01 01:07:58
  TRACK 48 AUDIO
    TITLE "0:"
    INDEX 01 01:08:67
  TRACK 49 AUDIO
    TITLE "5:cjc172_2543"
    INDEX 01 01:09:06
  TRACK 50 AUDIO
    TITLE "0:"
    INDEX 01 01:13:19
  TRACK 51 AUDIO
    TITLE "3:cjc172_2544"
    INDEX 01 01:13:72
  TRACK 52 AUDIO
    TITLE "0:"
    INDEX 01 01:15:12
  TRACK 53 AUDIO
    TITLE "4:cjc172_2545"
    INDEX 01 01:15:30
  TRACK 54 AUDIO
    TITLE "0:"
    INDEX 01 01:16:33
  TRACK 55 AUDIO
    TITLE "5:cjc172_2546"
    INDEX 01 01:16:49
  TRACK 56 AUDIO
    TITLE "0:"
    INDEX 01 01:20:41
  TRACK 57 AUDIO
    TITLE "3:cjc172_2547"
    INDEX 01 01:21:17
  TRACK 58 AUDIO
    TITLE "0:"
    INDEX 01 01:22:30
  TRACK 59 AUDIO
    TITLE "4:cjc172_2548"
    INDEX 01 01:22:45
  TRACK 60 AUDIO
    TITLE "0:"
    INDEX 01 01:24:48
  TRACK 61 AUDIO
    TITLE "5:cjc172_2549"
    INDEX 01 01:24:62
  TRACK 62 AUDIO
    TITLE "0:"
    INDEX 01 01:29:45
